# xmcd
#
# Track frame offsets:
#	180
#	17025
#	33567
#	52159
#	69250
#	83776
#	103595
#	118877
#	135835
#	152176
#	168213
#	181266
#	194838
#	212540
#	229241
#
# Disc length: 3238 seconds
#
# Revision: 1
# Processed by: cddbd v1.5.1PL0 Copyright (c) Steve Scherf et al.
# Submitted via: audiograbber 1.82.02
#
DISCID=cc0ca40f
DTITLE=Various Artist - Sound Choice 8123 Country Hits Vol 9
DYEAR=1900
DGENRE=Karaoke
TTITLE0=Lorrie Morgan - If you came back from heaven
TTITLE1=Carlene Carter - Something already gone
TTITLE2=Garth Brooks - One night a day
TTITLE3=Lari White - That's my baby
TTITLE4=Little Texas - Stop on a dime
TTITLE5=Billy Ray Cyrus - Talk some
TTITLE6=Restless Heart - Baby needs new shoes
TTITLE7=John Anderson - I wish I could have been there
TTITLE8=Mary-Chapin Carpenter - I take my chances
TTITLE9=Martina McBride - Independence day
TTITLE10=Neal McCoy - Wink
TTITLE11=Clay Walker - White Palace
TTITLE12=Marty Stuart - Love and luck
TTITLE13=Mark Collie - It is no secret
TTITLE14=Tracy Byrd - Life styles of the not so rich and famous
EXTD=
EXTT0=
EXTT1=
EXTT2=
EXTT3=
EXTT4=
EXTT5=
EXTT6=
EXTT7=
EXTT8=
EXTT9=
EXTT10=
EXTT11=
EXTT12=
EXTT13=
EXTT14=
PLAYORDER=
